HIERARCHY
ROOT Hips
{
	OFFSET 0.000000 0.000000 0.000000
	CHANNELS 6 Xposition Yposition Zposition Zrotation Yrotation Xrotation 
	JOINT LeftUpLeg_virtual
	{
		OFFSET 0.000000 0.000000 0.000000
		CHANNELS 3 Zrotation Yrotation Xrotation
		JOINT LeftUpLeg
		{
			OFFSET 8.479694 -4.795517 -0.379053
			CHANNELS 3 Zrotation Yrotation Xrotation
			JOINT LeftLeg
			{
				OFFSET 0.485052 -32.551468 0.112863
				CHANNELS 3 Zrotation Yrotation Xrotation
				JOINT LeftFoot
				{
					OFFSET 0.438033 -32.635670 -3.012641
					CHANNELS 3 Zrotation Yrotation Xrotation
					JOINT LeftToeBase
					{
						OFFSET 0.970169 -13.225353 11.864223
						CHANNELS 3 Zrotation Yrotation Xrotation
						End Site
						{
							OFFSET 0.000000 0.000000 0.000000
						}
					}
				}
			}
		}
	}
	JOINT RightUpLeg_virtual
	{
		OFFSET 0.000000 0.000000 0.000000
		CHANNELS 3 Zrotation Yrotation Xrotation
		JOINT RightUpLeg
		{
			OFFSET -8.479694 -4.795517 -0.379053
			CHANNELS 3 Zrotation Yrotation Xrotation
			JOINT RightLeg
			{
				OFFSET -0.484100 -32.551483 0.112903
				CHANNELS 3 Zrotation Yrotation Xrotation
				JOINT RightFoot
				{
					OFFSET -0.438985 -32.635651 -3.012681
					CHANNELS 3 Zrotation Yrotation Xrotation
					JOINT RightToeBase
					{
						OFFSET -0.970169 -13.225354 11.864223
						CHANNELS 3 Zrotation Yrotation Xrotation
						End Site
						{
							OFFSET 0.000000 0.000000 0.000000
						}
					}
				}
			}
		}
	}
	JOINT Spine_virtual
	{
		OFFSET 0.000000 0.000000 0.000000
		CHANNELS 3 Zrotation Yrotation Xrotation
		JOINT Spine
		{
			OFFSET 0.000000 7.722015 1.166203
			CHANNELS 3 Zrotation Yrotation Xrotation
			JOINT Spine1
			{
				OFFSET 0.000000 12.024086 0.248766
				CHANNELS 3 Zrotation Yrotation Xrotation
				JOINT Spine2
				{
					OFFSET -0.000000 11.503036 -0.491240
					CHANNELS 3 Zrotation Yrotation Xrotation
					JOINT Neck_virtual
					{
						OFFSET 0.000000 0.000000 0.000000
						CHANNELS 3 Zrotation Yrotation Xrotation
						JOINT Neck
						{
							OFFSET 0.000000 18.430687 -3.123054
							CHANNELS 3 Zrotation Yrotation Xrotation
							JOINT Head
							{
								OFFSET -0.000000 9.051071 1.034021
								CHANNELS 3 Zrotation Yrotation Xrotation
								End Site
								{
									OFFSET 0.000000 0.000000 0.000000
								}
							}
						}
					}
					JOINT LeftShoulder_virtual
					{
						OFFSET 0.000000 0.000000 0.000000
						CHANNELS 3 Zrotation Yrotation Xrotation
						JOINT LeftShoulder
						{
							OFFSET 6.197824 13.665230 -4.064723
							CHANNELS 3 Zrotation Yrotation Xrotation
							JOINT LeftArm
							{
								OFFSET 7.778132 -0.187073 -1.709282
								CHANNELS 3 Zrotation Yrotation Xrotation
								JOINT LeftForeArm
								{
									OFFSET 21.954697 0.000000 -2.041093
									CHANNELS 3 Zrotation Yrotation Xrotation
									JOINT LeftHand
									{
										OFFSET 22.992908 0.000000 -0.870901
										CHANNELS 3 Zrotation Yrotation Xrotation
										End Site
										{
											OFFSET 0.000000 0.000000 0.000000
										}
									}
								}
							}
						}
					}
					JOINT RightShoulder_virtual
					{
						OFFSET 0.000000 0.000000 0.000000
						CHANNELS 3 Zrotation Yrotation Xrotation
						JOINT RightShoulder
						{
							OFFSET -6.197824 13.665230 -4.064723
							CHANNELS 3 Zrotation Yrotation Xrotation
							JOINT RightArm
							{
								OFFSET -7.778132 -0.187073 -1.709282
								CHANNELS 3 Zrotation Yrotation Xrotation
								JOINT RightForeArm
								{
									OFFSET -21.954697 0.000000 -2.041093
									CHANNELS 3 Zrotation Yrotation Xrotation
									JOINT RightHand
									{
										OFFSET -22.992908 0.000000 -0.870901
										CHANNELS 3 Zrotation Yrotation Xrotation
										End Site
										{
											OFFSET 0.000000 0.000000 0.000000
										}
									}
								}
							}
						}
					}
				}
			}
		}
	}
}
MOTION
Frames: 4
Frame Time: 0.033333
5.655343 81.094322 24.184198 -179.934749 -15.953638 179.887826 -1.907474 -0.783823 14.301439 4.226354 -5.840501 -20.782546 3.043104 2.731538 24.859196 3.718923 -4.804721 -9.528264 0.000000 0.000000 0.000000 2.130610 -2.299206 14.438135 -3.989222 4.814220 -24.267705 1.534115 7.874441 31.649970 10.722956 6.393487 -12.413763 0.000000 0.000000 0.000000 2.937010 1.399211 1.589802 5.408295 -0.219554 -4.591853 0.769815 -2.169295 7.717063 0.014294 -0.003402 0.052262 0.760737 -0.794320 8.034962 7.324743 -0.977241 -0.244931 0.000000 0.000000 0.000000 2.080566 -0.401585 4.877853 -1.589870 0.775219 2.922455 -62.331917 1.627257 -7.741248 -124.340848 -87.084420 152.383624 0.000000 0.000000 0.000000 -2.988465 1.600597 3.544993 16.382806 1.027369 0.105134 42.748119 15.743181 -46.107728 -164.741636 63.496977 -173.391005 0.000000 0.000000 0.000000 
5.629855 81.102547 24.123934 -179.933124 -14.233047 179.913808 -1.985933 -0.295232 14.262155 3.995616 -5.105432 -20.682890 3.177012 2.962109 25.089628 3.731250 -4.724701 -9.577218 0.000000 0.000000 0.000000 2.037996 -1.739253 14.561504 -4.145147 5.624240 -24.395522 1.570391 8.172759 31.468273 10.848705 6.379305 -12.297252 0.000000 0.000000 0.000000 2.984237 1.914392 1.640026 5.667293 -0.476535 -4.546424 0.885244 -2.275734 7.678786 0.002909 0.003530 -0.018462 0.896131 -0.991569 8.129384 8.006290 -1.399747 -0.278431 0.000000 0.000000 0.000000 2.203255 -0.599854 4.965106 -1.478835 0.790417 2.843796 -62.133138 1.936500 -7.838086 -120.735219 -86.990136 148.928136 0.000000 0.000000 0.000000 -2.910803 1.471522 3.562718 16.500777 0.555033 -0.017202 41.443389 15.609793 -50.391828 -164.923524 62.575864 -173.410703 0.000000 0.000000 0.000000 
5.566675 81.104172 24.046806 -179.972507 -12.491274 179.877116 -2.071153 0.052043 14.303817 3.680364 -4.249707 -20.467454 3.186117 3.081904 25.239868 3.906068 -4.463921 -9.674887 0.000000 0.000000 0.000000 1.958616 -1.168437 14.675251 -4.294906 6.221909 -24.410473 1.575385 8.681328 31.263866 10.988681 6.416444 -12.246860 0.000000 0.000000 0.000000 3.014517 2.318499 1.685231 5.944098 -0.764922 -4.443658 0.938166 -2.388320 7.713454 -0.035206 -0.016369 -0.030991 0.996917 -1.049062 8.197840 8.296235 -1.753555 -0.350487 0.000000 0.000000 0.000000 2.316418 -0.727181 5.040019 -1.337201 0.903274 2.824212 -62.093263 2.026252 -7.775974 -118.774094 -86.878831 147.053317 0.000000 0.000000 0.000000 -2.769039 1.331182 3.607543 16.615728 0.216579 -0.069165 40.799442 15.069071 -52.968038 -164.996443 61.861713 -173.369216 0.000000 0.000000 0.000000 
5.489835 81.083282 23.949085 -179.882567 -10.702515 179.886146 -2.053110 0.447709 14.284490 3.461506 -3.517608 -20.434427 3.144538 3.250947 25.668746 3.986123 -4.215625 -9.779802 0.000000 0.000000 0.000000 1.935110 -0.634084 14.722556 -4.413828 6.860394 -24.523164 1.471832 8.969187 31.128160 11.264246 6.536932 -12.182995 0.000000 0.000000 0.000000 3.139686 2.731503 1.638728 6.273454 -1.038572 -4.320532 0.991043 -2.489898 7.769047 -0.028954 -0.006265 -0.049833 0.981616 -1.145443 8.318522 8.196449 -1.738562 -0.552635 0.000000 0.000000 0.000000 2.360187 -0.819844 5.120329 -1.199651 1.032276 2.801770 -62.199425 1.859872 -7.511041 -119.500361 -86.859195 147.771853 0.000000 0.000000 0.000000 -2.757609 1.279360 3.680838 16.750247 0.017367 0.053530 40.809089 14.114787 -54.227870 -165.322994 61.377473 -173.656207 0.000000 0.000000 0.000000 
